<?xml version="1.0" encoding="UTF-8"?>
<svg xmlns="http://www.w3.org/2000/svg" version="1.1" viewBox="0 0 80 80">
  <defs>
    <style>
      .cls-1 {
        fill: #e01e35;
      }

      .cls-2 {
        fill: gray;
      }
    </style>
  </defs>
  <!-- Generator: Adobe Illustrator 28.6.0, SVG Export Plug-In . SVG Version: 1.2.0 Build 709)  -->
  <g>
    <g id="Layer_1">
      <g>
        <path class="cls-1" d="M40.4,43.1c-1.2,0-2.2-1-2.2-2.2V8c0-1.2,1-2.2,2.2-2.2s2.2,1,2.2,2.2v33c0,1.2-1,2.2-2.2,2.2"/>
        <path class="cls-2" d="M13.1,40.6c2.5,0,4.6,2.1,4.6,4.6s-2.1,4.6-4.6,4.6-4.6-2.1-4.6-4.6,2.1-4.6,4.6-4.6"/>
        <path class="cls-2" d="M26.8,40.6c2.5,0,4.6,2.1,4.6,4.6s-2.1,4.6-4.6,4.6-4.6-2.1-4.6-4.6,2.1-4.6,4.6-4.6"/>
        <path class="cls-1" d="M40.4,37.8c3.3,0,6,2.7,6,6s-2.7,6-6,6-6-2.7-6-6,2.7-6,6-6"/>
        <path class="cls-2" d="M54.1,40.6c2.5,0,4.6,2.1,4.6,4.6s-2.1,4.6-4.6,4.6-4.6-2.1-4.6-4.6,2.1-4.6,4.6-4.6"/>
        <path class="cls-2" d="M67.8,40.6c2.5,0,4.6,2.1,4.6,4.6s-2.1,4.6-4.6,4.6-4.6-2.1-4.6-4.6,2.1-4.6,4.6-4.6"/>
        <path class="cls-2" d="M60.5,52.8c2.5,0,4.6,2.1,4.6,4.6s-2.1,4.6-4.6,4.6-4.6-2.1-4.6-4.6,2.1-4.6,4.6-4.6"/>
        <path class="cls-2" d="M46.8,52.8c2.5,0,4.6,2.1,4.6,4.6s-2.1,4.6-4.6,4.6-4.6-2.1-4.6-4.6,2.1-4.6,4.6-4.6"/>
        <path class="cls-2" d="M33.2,52.8c2.5,0,4.6,2.1,4.6,4.6s-2.1,4.6-4.6,4.6-4.6-2.1-4.6-4.6,2.1-4.6,4.6-4.6"/>
        <path class="cls-2" d="M19.5,52.8c2.5,0,4.6,2.1,4.6,4.6s-2.1,4.6-4.6,4.6-4.6-2.1-4.6-4.6,2.1-4.6,4.6-4.6"/>
        <path class="cls-2" d="M5.9,52.8c2.5,0,4.6,2.1,4.6,4.6s-2.1,4.6-4.6,4.6-4.6-2.1-4.6-4.6,2.1-4.6,4.6-4.6"/>
        <path class="cls-2" d="M74.1,52.8c2.5,0,4.6,2.1,4.6,4.6s-2.1,4.6-4.6,4.6-4.6-2.1-4.6-4.6,2.1-4.6,4.6-4.6"/>
        <path class="cls-2" d="M26.8,65c2.5,0,4.6,2.1,4.6,4.6s-2.1,4.6-4.6,4.6-4.6-2.1-4.6-4.6,2.1-4.6,4.6-4.6"/>
        <path class="cls-2" d="M13.1,65c2.5,0,4.6,2.1,4.6,4.6s-2.1,4.6-4.6,4.6-4.6-2.1-4.6-4.6,2.1-4.6,4.6-4.6"/>
        <path class="cls-2" d="M40.4,65c2.5,0,4.6,2.1,4.6,4.6s-2.1,4.6-4.6,4.6-4.6-2.1-4.6-4.6,2.1-4.6,4.6-4.6"/>
        <path class="cls-2" d="M54.1,65c2.5,0,4.6,2.1,4.6,4.6s-2.1,4.6-4.6,4.6-4.6-2.1-4.6-4.6,2.1-4.6,4.6-4.6"/>
        <path class="cls-2" d="M67.8,65c2.5,0,4.6,2.1,4.6,4.6s-2.1,4.6-4.6,4.6-4.6-2.1-4.6-4.6,2.1-4.6,4.6-4.6"/>
        <path class="cls-1" d="M28.8,37.8c-.3,0-.6,0-.8-.2L3.8,23.8c-.8-.5-1.1-1.5-.6-2.3.5-.8,1.5-1.1,2.3-.6l24.2,13.8c.8.5,1.1,1.5.6,2.3-.3.6-.9.9-1.5.9h0Z"/>
        <path class="cls-1" d="M32.8,31.9c-.5,0-1-.2-1.4-.7l-9.2-12.2c-.6-.8-.4-1.8.3-2.4.8-.6,1.8-.4,2.4.3l9.2,12.2c.6.8.4,1.8-.3,2.4-.3.2-.7.3-1,.3"/>
        <path class="cls-1" d="M52.1,37.8c-.6,0-1.2-.3-1.5-.9-.5-.8-.2-1.9.6-2.3l24.2-13.8c.8-.5,1.9-.2,2.3.6.5.8.2,1.9-.6,2.3l-24.2,13.8c-.3.2-.6.2-.8.2h0Z"/>
        <path class="cls-1" d="M48.1,31.9c-.4,0-.7-.1-1-.3-.8-.6-.9-1.6-.3-2.4l9.2-12.2c.6-.8,1.6-.9,2.4-.3.8.6.9,1.6.3,2.4l-9.2,12.2c-.3.5-.9.7-1.4.7"/>
      </g>
    </g>
  </g>
</svg>